<?xml version="1.0" standalone="no"?>
<!DOCTYPE svg PUBLIC "-//W3C//DTD SVG 20010904//EN"
 "http://www.w3.org/TR/2001/REC-SVG-20010904/DTD/svg10.dtd">
<svg version="1.0" xmlns="http://www.w3.org/2000/svg"
 width="1280.000000pt" height="1280.000000pt" viewBox="0 0 1280.000000 1280.000000"
 preserveAspectRatio="xMidYMid meet">
<g transform="translate(0.000000,1280.000000) scale(0.100000,-0.100000)"
fill="#f44336" stroke="none">
<path d="M2323 12776 c-39 -13 -91 -35 -115 -49 -66 -40 -2121 -2102 -2148
-2156 -27 -53 -60 -170 -60 -208 0 -46 46 -179 79 -230 16 -27 856 -874 1866
-1883 1009 -1009 1835 -1842 1835 -1850 0 -8 -832 -847 -1849 -1865 -2025
-2026 -1877 -1869 -1916 -2033 -17 -71 -17 -74 4 -153 12 -44 31 -99 42 -122
26 -52 2083 -2116 2147 -2154 50 -30 184 -73 226 -73 36 0 158 36 211 62 26
13 667 647 1890 1869 1018 1017 1857 1849 1865 1849 8 0 841 -826 1850 -1835
1009 -1010 1856 -1850 1883 -1866 51 -34 184 -79 231 -79 36 0 158 36 211 62
50 25 2115 2084 2152 2146 30 51 73 184 73 227 0 48 -45 180 -79 232 -16 27
-856 874 -1866 1883 -1009 1009 -1835 1842 -1835 1850 0 8 826 841 1835 1850
1010 1009 1850 1856 1866 1883 34 52 79 184 79 232 0 43 -43 176 -73 227 -37
62 -2102 2121 -2152 2146 -53 26 -175 62 -211 62 -47 0 -180 -45 -231 -79 -27
-16 -874 -856 -1883 -1866 -1009 -1009 -1842 -1835 -1850 -1835 -8 0 -847 832
-1865 1849 -1223 1222 -1864 1856 -1890 1869 -57 28 -176 62 -216 61 -19 0
-66 -11 -106 -23z"/>
</g>
</svg>
